<mxfile host="app.diagrams.net" modified="2023-12-11T13:24:21.766Z" agent="Mozilla/5.0 (Windows NT 10.0; Win64; x64) AppleWebKit/537.36 (KHTML, like Gecko) Chrome/119.0.0.0 Safari/537.36" etag="taIP2IrstDK4TDk3lbCs" version="22.1.7" type="device">
  <diagram name="Страница — 1" id="7xayA2X0lFcNAkIxaal0">
    <mxGraphModel dx="1050" dy="2228" grid="1" gridSize="10" guides="1" tooltips="1" connect="1" arrows="1" fold="1" page="1" pageScale="1" pageWidth="1169" pageHeight="1654" math="0" shadow="0">
      <root>
        <mxCell id="0" />
        <mxCell id="1" parent="0" />
        <mxCell id="7Wi85aK-Hh3UJUBQixd6-3" style="edgeStyle=orthogonalEdgeStyle;rounded=0;orthogonalLoop=1;jettySize=auto;html=1;exitX=1;exitY=0.5;exitDx=0;exitDy=0;labelBackgroundColor=#FFFFFF;fontColor=#000000;fontStyle=1;fontSize=14;" parent="1" source="7Wi85aK-Hh3UJUBQixd6-1" target="7Wi85aK-Hh3UJUBQixd6-4" edge="1">
          <mxGeometry relative="1" as="geometry">
            <mxPoint x="350" y="70.33333333333337" as="targetPoint" />
          </mxGeometry>
        </mxCell>
        <mxCell id="7Wi85aK-Hh3UJUBQixd6-1" value="index.js" style="rounded=0;whiteSpace=wrap;html=1;labelBackgroundColor=#FFFFFF;fontColor=#000000;fontStyle=1;fontSize=14;" parent="1" vertex="1">
          <mxGeometry x="30" y="40" width="120" height="60" as="geometry" />
        </mxCell>
        <mxCell id="7Wi85aK-Hh3UJUBQixd6-6" value="" style="edgeStyle=orthogonalEdgeStyle;rounded=0;orthogonalLoop=1;jettySize=auto;html=1;labelBackgroundColor=#FFFFFF;fontColor=#000000;fontStyle=1;fontSize=14;" parent="1" source="7Wi85aK-Hh3UJUBQixd6-4" target="7Wi85aK-Hh3UJUBQixd6-5" edge="1">
          <mxGeometry relative="1" as="geometry" />
        </mxCell>
        <mxCell id="7Wi85aK-Hh3UJUBQixd6-4" value="App" style="rounded=0;whiteSpace=wrap;html=1;labelBackgroundColor=#FFFFFF;fontColor=#000000;fontStyle=1;fontSize=14;" parent="1" vertex="1">
          <mxGeometry x="600" y="30.003333333333373" width="120" height="60" as="geometry" />
        </mxCell>
        <mxCell id="7Wi85aK-Hh3UJUBQixd6-11" style="edgeStyle=orthogonalEdgeStyle;rounded=0;orthogonalLoop=1;jettySize=auto;html=1;exitX=0;exitY=0.5;exitDx=0;exitDy=0;entryX=1;entryY=0.5;entryDx=0;entryDy=0;labelBackgroundColor=#FFFFFF;fontColor=#000000;fontStyle=1;fontSize=14;" parent="1" source="7Wi85aK-Hh3UJUBQixd6-5" target="7Wi85aK-Hh3UJUBQixd6-8" edge="1">
          <mxGeometry relative="1" as="geometry" />
        </mxCell>
        <mxCell id="7Wi85aK-Hh3UJUBQixd6-12" style="edgeStyle=orthogonalEdgeStyle;rounded=0;orthogonalLoop=1;jettySize=auto;html=1;exitX=1;exitY=0.5;exitDx=0;exitDy=0;labelBackgroundColor=#FFFFFF;fontColor=#000000;fontStyle=1;fontSize=14;" parent="1" source="7Wi85aK-Hh3UJUBQixd6-5" target="7Wi85aK-Hh3UJUBQixd6-9" edge="1">
          <mxGeometry relative="1" as="geometry" />
        </mxCell>
        <mxCell id="7Wi85aK-Hh3UJUBQixd6-5" value="&lt;div style=&quot;font-size: 14px;&quot;&gt;&lt;pre style=&quot;font-family: &amp;quot;JetBrains Mono&amp;quot;, monospace; font-size: 14px;&quot;&gt;&lt;span style=&quot;font-size: 14px;&quot;&gt;BrowserRouter&lt;/span&gt;&lt;/pre&gt;&lt;/div&gt;" style="rounded=0;whiteSpace=wrap;html=1;labelBackgroundColor=#FFFFFF;fontColor=#000000;fontStyle=1;fontSize=14;" parent="1" vertex="1">
          <mxGeometry x="620" y="130" width="120" height="50" as="geometry" />
        </mxCell>
        <mxCell id="7Wi85aK-Hh3UJUBQixd6-8" value="Navbar" style="rounded=0;whiteSpace=wrap;html=1;labelBackgroundColor=#FFFFFF;fontColor=#000000;fontStyle=1;fontSize=14;" parent="1" vertex="1">
          <mxGeometry x="60" y="160" width="120" height="60" as="geometry" />
        </mxCell>
        <mxCell id="7Wi85aK-Hh3UJUBQixd6-9" value="Header" style="rounded=0;whiteSpace=wrap;html=1;labelBackgroundColor=#FFFFFF;fontColor=#000000;fontStyle=1;fontSize=14;" parent="1" vertex="1">
          <mxGeometry x="900" y="120" width="120" height="60" as="geometry" />
        </mxCell>
        <mxCell id="7Wi85aK-Hh3UJUBQixd6-20" style="edgeStyle=orthogonalEdgeStyle;rounded=0;orthogonalLoop=1;jettySize=auto;html=1;exitX=0.25;exitY=1;exitDx=0;exitDy=0;entryX=0.5;entryY=0;entryDx=0;entryDy=0;labelBackgroundColor=#FFFFFF;fontColor=#000000;fontStyle=1;fontSize=14;" parent="1" source="7Wi85aK-Hh3UJUBQixd6-13" target="7Wi85aK-Hh3UJUBQixd6-16" edge="1">
          <mxGeometry relative="1" as="geometry" />
        </mxCell>
        <mxCell id="7Wi85aK-Hh3UJUBQixd6-22" style="edgeStyle=orthogonalEdgeStyle;rounded=0;orthogonalLoop=1;jettySize=auto;html=1;exitX=0.5;exitY=1;exitDx=0;exitDy=0;entryX=0.5;entryY=0;entryDx=0;entryDy=0;labelBackgroundColor=#FFFFFF;fontColor=#000000;fontStyle=1;fontSize=14;" parent="1" source="7Wi85aK-Hh3UJUBQixd6-13" target="7Wi85aK-Hh3UJUBQixd6-17" edge="1">
          <mxGeometry relative="1" as="geometry" />
        </mxCell>
        <mxCell id="7Wi85aK-Hh3UJUBQixd6-23" style="edgeStyle=orthogonalEdgeStyle;rounded=0;orthogonalLoop=1;jettySize=auto;html=1;exitX=0.75;exitY=1;exitDx=0;exitDy=0;entryX=0.5;entryY=0;entryDx=0;entryDy=0;labelBackgroundColor=#FFFFFF;fontColor=#000000;fontStyle=1;fontSize=14;" parent="1" source="7Wi85aK-Hh3UJUBQixd6-13" target="7Wi85aK-Hh3UJUBQixd6-18" edge="1">
          <mxGeometry relative="1" as="geometry" />
        </mxCell>
        <mxCell id="7Wi85aK-Hh3UJUBQixd6-13" value="Content общее название для всех&amp;nbsp; детей, но по факту данного квадрата в коде нет" style="rounded=0;whiteSpace=wrap;html=1;labelBackgroundColor=#FFFFFF;fontColor=#000000;fontStyle=1;fontSize=14;" parent="1" vertex="1">
          <mxGeometry x="520" y="210" width="290" height="50" as="geometry" />
        </mxCell>
        <mxCell id="7Wi85aK-Hh3UJUBQixd6-14" style="edgeStyle=orthogonalEdgeStyle;rounded=0;orthogonalLoop=1;jettySize=auto;html=1;exitX=0.5;exitY=1;exitDx=0;exitDy=0;entryX=0.546;entryY=0.033;entryDx=0;entryDy=0;entryPerimeter=0;labelBackgroundColor=#FFFFFF;fontColor=#000000;fontStyle=1;fontSize=14;" parent="1" source="7Wi85aK-Hh3UJUBQixd6-5" target="7Wi85aK-Hh3UJUBQixd6-13" edge="1">
          <mxGeometry relative="1" as="geometry" />
        </mxCell>
        <mxCell id="7Wi85aK-Hh3UJUBQixd6-32" style="edgeStyle=orthogonalEdgeStyle;rounded=0;orthogonalLoop=1;jettySize=auto;html=1;exitX=0;exitY=1;exitDx=0;exitDy=0;entryX=0.5;entryY=0;entryDx=0;entryDy=0;labelBackgroundColor=#FFFFFF;fontColor=#000000;fontStyle=1;fontSize=14;" parent="1" source="7Wi85aK-Hh3UJUBQixd6-15" target="7Wi85aK-Hh3UJUBQixd6-30" edge="1">
          <mxGeometry relative="1" as="geometry" />
        </mxCell>
        <mxCell id="7Wi85aK-Hh3UJUBQixd6-15" value="&lt;div style=&quot;font-size: 14px;&quot;&gt;&lt;pre style=&quot;font-family: &amp;quot;JetBrains Mono&amp;quot;, monospace; font-size: 14px;&quot;&gt;Dialogs&lt;/pre&gt;&lt;/div&gt;" style="rounded=0;whiteSpace=wrap;html=1;labelBackgroundColor=#FFFFFF;fontColor=#000000;fontStyle=1;fontSize=14;" parent="1" vertex="1">
          <mxGeometry x="140" y="320" width="120" height="50" as="geometry" />
        </mxCell>
        <mxCell id="7Wi85aK-Hh3UJUBQixd6-16" value="&lt;div style=&quot;font-size: 14px;&quot;&gt;&lt;pre style=&quot;font-family: &amp;quot;JetBrains Mono&amp;quot;, monospace; font-size: 14px;&quot;&gt;Profile&lt;/pre&gt;&lt;/div&gt;" style="rounded=0;whiteSpace=wrap;html=1;labelBackgroundColor=#FFFFFF;fontColor=#000000;fontStyle=1;fontSize=14;" parent="1" vertex="1">
          <mxGeometry x="500" y="310" width="120" height="60" as="geometry" />
        </mxCell>
        <mxCell id="7Wi85aK-Hh3UJUBQixd6-17" value="&lt;div style=&quot;font-size: 14px;&quot;&gt;&lt;pre style=&quot;font-family: &amp;quot;JetBrains Mono&amp;quot;, monospace; font-size: 14px;&quot;&gt;News&lt;/pre&gt;&lt;/div&gt;" style="rounded=0;whiteSpace=wrap;html=1;labelBackgroundColor=#FFFFFF;fontColor=#000000;fontStyle=1;fontSize=14;" parent="1" vertex="1">
          <mxGeometry x="740" y="320" width="120" height="60" as="geometry" />
        </mxCell>
        <mxCell id="7Wi85aK-Hh3UJUBQixd6-18" value="&lt;div style=&quot;font-size: 14px;&quot;&gt;&lt;pre style=&quot;font-family: &amp;quot;JetBrains Mono&amp;quot;, monospace; font-size: 14px;&quot;&gt;Music&lt;/pre&gt;&lt;/div&gt;" style="rounded=0;whiteSpace=wrap;html=1;labelBackgroundColor=#FFFFFF;fontColor=#000000;fontStyle=1;fontSize=14;" parent="1" vertex="1">
          <mxGeometry x="910" y="300" width="120" height="60" as="geometry" />
        </mxCell>
        <mxCell id="7Wi85aK-Hh3UJUBQixd6-19" style="edgeStyle=orthogonalEdgeStyle;rounded=0;orthogonalLoop=1;jettySize=auto;html=1;exitX=0;exitY=0.75;exitDx=0;exitDy=0;entryX=0.447;entryY=0.028;entryDx=0;entryDy=0;entryPerimeter=0;labelBackgroundColor=#FFFFFF;fontColor=#000000;fontStyle=1;fontSize=14;" parent="1" source="7Wi85aK-Hh3UJUBQixd6-13" target="7Wi85aK-Hh3UJUBQixd6-15" edge="1">
          <mxGeometry relative="1" as="geometry" />
        </mxCell>
        <mxCell id="7Wi85aK-Hh3UJUBQixd6-21" value="&lt;div style=&quot;font-size: 14px;&quot;&gt;&lt;pre style=&quot;font-family: &amp;quot;JetBrains Mono&amp;quot;, monospace; font-size: 14px;&quot;&gt;Settings&lt;/pre&gt;&lt;/div&gt;" style="rounded=0;whiteSpace=wrap;html=1;labelBackgroundColor=#FFFFFF;fontColor=#000000;fontStyle=1;fontSize=14;" parent="1" vertex="1">
          <mxGeometry x="1040" y="280" width="120" height="60" as="geometry" />
        </mxCell>
        <mxCell id="7Wi85aK-Hh3UJUBQixd6-24" style="edgeStyle=orthogonalEdgeStyle;rounded=0;orthogonalLoop=1;jettySize=auto;html=1;exitX=1;exitY=0.5;exitDx=0;exitDy=0;entryX=0.458;entryY=-0.006;entryDx=0;entryDy=0;entryPerimeter=0;labelBackgroundColor=#FFFFFF;fontColor=#000000;fontStyle=1;fontSize=14;" parent="1" source="7Wi85aK-Hh3UJUBQixd6-13" target="7Wi85aK-Hh3UJUBQixd6-21" edge="1">
          <mxGeometry relative="1" as="geometry" />
        </mxCell>
        <mxCell id="7Wi85aK-Hh3UJUBQixd6-25" value="&lt;div style=&quot;font-size: 14px;&quot;&gt;&lt;pre style=&quot;font-family: &amp;quot;JetBrains Mono&amp;quot;, monospace; font-size: 14px;&quot;&gt;MyPosts&lt;/pre&gt;&lt;/div&gt;" style="rounded=0;whiteSpace=wrap;html=1;labelBackgroundColor=#FFFFFF;fontColor=#000000;fontStyle=1;fontSize=14;" parent="1" vertex="1">
          <mxGeometry x="420" y="410" width="120" height="60" as="geometry" />
        </mxCell>
        <mxCell id="7Wi85aK-Hh3UJUBQixd6-26" value="&lt;div style=&quot;font-size: 14px;&quot;&gt;&lt;pre style=&quot;font-family: &amp;quot;JetBrains Mono&amp;quot;, monospace; font-size: 14px;&quot;&gt;ProfileInfo&lt;/pre&gt;&lt;/div&gt;" style="rounded=0;whiteSpace=wrap;html=1;labelBackgroundColor=#FFFFFF;fontColor=#000000;fontStyle=1;fontSize=14;" parent="1" vertex="1">
          <mxGeometry x="585" y="410" width="120" height="60" as="geometry" />
        </mxCell>
        <mxCell id="7Wi85aK-Hh3UJUBQixd6-28" style="edgeStyle=orthogonalEdgeStyle;rounded=0;orthogonalLoop=1;jettySize=auto;html=1;exitX=0;exitY=1;exitDx=0;exitDy=0;entryX=0.553;entryY=-0.017;entryDx=0;entryDy=0;entryPerimeter=0;labelBackgroundColor=#FFFFFF;fontColor=#000000;fontStyle=1;fontSize=14;" parent="1" source="7Wi85aK-Hh3UJUBQixd6-16" target="7Wi85aK-Hh3UJUBQixd6-25" edge="1">
          <mxGeometry relative="1" as="geometry" />
        </mxCell>
        <mxCell id="7Wi85aK-Hh3UJUBQixd6-29" style="edgeStyle=orthogonalEdgeStyle;rounded=0;orthogonalLoop=1;jettySize=auto;html=1;exitX=1;exitY=1;exitDx=0;exitDy=0;entryX=0.581;entryY=-0.039;entryDx=0;entryDy=0;entryPerimeter=0;labelBackgroundColor=#FFFFFF;fontColor=#000000;fontStyle=1;fontSize=14;" parent="1" source="7Wi85aK-Hh3UJUBQixd6-16" target="7Wi85aK-Hh3UJUBQixd6-26" edge="1">
          <mxGeometry relative="1" as="geometry" />
        </mxCell>
        <mxCell id="7Wi85aK-Hh3UJUBQixd6-30" value="&lt;div style=&quot;font-size: 14px;&quot;&gt;&lt;pre style=&quot;font-family: &amp;quot;JetBrains Mono&amp;quot;, monospace; font-size: 14px;&quot;&gt;DialogItem&lt;/pre&gt;&lt;/div&gt;" style="rounded=0;whiteSpace=wrap;html=1;labelBackgroundColor=#FFFFFF;fontColor=#000000;fontStyle=1;fontSize=14;" parent="1" vertex="1">
          <mxGeometry x="20" y="420" width="120" height="60" as="geometry" />
        </mxCell>
        <mxCell id="7Wi85aK-Hh3UJUBQixd6-31" value="&lt;div style=&quot;font-size: 14px;&quot;&gt;&lt;pre style=&quot;font-family: &amp;quot;JetBrains Mono&amp;quot;, monospace; font-size: 14px;&quot;&gt;Message&lt;/pre&gt;&lt;/div&gt;" style="rounded=0;whiteSpace=wrap;html=1;labelBackgroundColor=#FFFFFF;fontColor=#000000;fontStyle=1;fontSize=14;" parent="1" vertex="1">
          <mxGeometry x="170" y="420" width="120" height="60" as="geometry" />
        </mxCell>
        <mxCell id="7Wi85aK-Hh3UJUBQixd6-33" style="edgeStyle=orthogonalEdgeStyle;rounded=0;orthogonalLoop=1;jettySize=auto;html=1;exitX=1;exitY=1;exitDx=0;exitDy=0;entryX=0.864;entryY=-0.015;entryDx=0;entryDy=0;entryPerimeter=0;labelBackgroundColor=#FFFFFF;fontColor=#000000;fontStyle=1;fontSize=14;" parent="1" source="7Wi85aK-Hh3UJUBQixd6-15" target="7Wi85aK-Hh3UJUBQixd6-31" edge="1">
          <mxGeometry relative="1" as="geometry" />
        </mxCell>
        <mxCell id="7Wi85aK-Hh3UJUBQixd6-34" value="" style="rounded=0;whiteSpace=wrap;html=1;fontSize=14;" parent="1" vertex="1">
          <mxGeometry x="360" y="480" width="120" height="60" as="geometry" />
        </mxCell>
        <mxCell id="7Wi85aK-Hh3UJUBQixd6-35" value="" style="rounded=0;whiteSpace=wrap;html=1;fontSize=14;" parent="1" vertex="1">
          <mxGeometry x="340" y="500" width="120" height="60" as="geometry" />
        </mxCell>
        <mxCell id="7Wi85aK-Hh3UJUBQixd6-36" value="&lt;b style=&quot;font-size: 14px;&quot;&gt;Post&lt;/b&gt;" style="rounded=0;whiteSpace=wrap;html=1;fontSize=14;" parent="1" vertex="1">
          <mxGeometry x="320" y="530" width="120" height="60" as="geometry" />
        </mxCell>
        <mxCell id="7Wi85aK-Hh3UJUBQixd6-37" value="" style="endArrow=none;html=1;rounded=0;exitX=0;exitY=0;exitDx=0;exitDy=0;entryX=0;entryY=0.5;entryDx=0;entryDy=0;fontSize=14;" parent="1" source="7Wi85aK-Hh3UJUBQixd6-36" target="7Wi85aK-Hh3UJUBQixd6-25" edge="1">
          <mxGeometry width="50" height="50" relative="1" as="geometry">
            <mxPoint x="530" y="380" as="sourcePoint" />
            <mxPoint x="580" y="330" as="targetPoint" />
          </mxGeometry>
        </mxCell>
        <mxCell id="OusiJfg53RnRZ_Edl_S3-4" value="" style="endArrow=none;html=1;rounded=0;fillColor=#f8cecc;strokeColor=#b85450;strokeWidth=4;fontSize=14;" parent="1" edge="1">
          <mxGeometry width="50" height="50" relative="1" as="geometry">
            <mxPoint x="50" y="140" as="sourcePoint" />
            <mxPoint x="570" y="10" as="targetPoint" />
          </mxGeometry>
        </mxCell>
        <mxCell id="OusiJfg53RnRZ_Edl_S3-6" value="Data all" style="rounded=0;whiteSpace=wrap;html=1;strokeColor=#d79b00;fontStyle=1;fontSize=14;fillColor=#ffe6cc;" parent="1" vertex="1">
          <mxGeometry x="190" y="-20" width="120" height="60" as="geometry" />
        </mxCell>
        <mxCell id="bHlZWym9k1EQyk_S69b3-3" value="UI&lt;br style=&quot;font-size: 16px;&quot;&gt;User Interface" style="rounded=0;whiteSpace=wrap;html=1;fontSize=16;" vertex="1" parent="1">
          <mxGeometry x="250" y="-420" width="160" height="60" as="geometry" />
        </mxCell>
        <mxCell id="bHlZWym9k1EQyk_S69b3-4" value="BLL&lt;br style=&quot;font-size: 16px;&quot;&gt;Business Logic Layer" style="rounded=0;whiteSpace=wrap;html=1;fontSize=16;" vertex="1" parent="1">
          <mxGeometry x="620" y="-420" width="170" height="60" as="geometry" />
        </mxCell>
        <mxCell id="bHlZWym9k1EQyk_S69b3-5" value="" style="endArrow=none;html=1;rounded=0;fontSize=16;" edge="1" parent="1">
          <mxGeometry width="50" height="50" relative="1" as="geometry">
            <mxPoint x="530" y="-190" as="sourcePoint" />
            <mxPoint x="530" y="-490" as="targetPoint" />
          </mxGeometry>
        </mxCell>
        <mxCell id="bHlZWym9k1EQyk_S69b3-6" value="" style="endArrow=classic;html=1;rounded=0;fontSize=16;" edge="1" parent="1">
          <mxGeometry width="50" height="50" relative="1" as="geometry">
            <mxPoint x="610" y="-340" as="sourcePoint" />
            <mxPoint x="400" y="-290" as="targetPoint" />
          </mxGeometry>
        </mxCell>
        <mxCell id="bHlZWym9k1EQyk_S69b3-8" value="Profile" style="text;html=1;strokeColor=none;fillColor=none;align=center;verticalAlign=middle;whiteSpace=wrap;rounded=0;fontSize=16;" vertex="1" parent="1">
          <mxGeometry x="330" y="-300" width="60" height="30" as="geometry" />
        </mxCell>
        <mxCell id="bHlZWym9k1EQyk_S69b3-9" value="React" style="text;html=1;strokeColor=none;fillColor=none;align=center;verticalAlign=middle;whiteSpace=wrap;rounded=0;fontSize=16;" vertex="1" parent="1">
          <mxGeometry x="300" y="-460" width="60" height="30" as="geometry" />
        </mxCell>
        <mxCell id="bHlZWym9k1EQyk_S69b3-10" value="Redux" style="text;html=1;strokeColor=none;fillColor=none;align=center;verticalAlign=middle;whiteSpace=wrap;rounded=0;fontSize=16;" vertex="1" parent="1">
          <mxGeometry x="680" y="-460" width="60" height="30" as="geometry" />
        </mxCell>
        <mxCell id="bHlZWym9k1EQyk_S69b3-11" value="props" style="text;html=1;strokeColor=none;fillColor=none;align=center;verticalAlign=middle;whiteSpace=wrap;rounded=0;fontSize=16;" vertex="1" parent="1">
          <mxGeometry x="440" y="-340" width="60" height="30" as="geometry" />
        </mxCell>
        <mxCell id="bHlZWym9k1EQyk_S69b3-12" value="" style="endArrow=classic;html=1;rounded=0;" edge="1" parent="1">
          <mxGeometry width="50" height="50" relative="1" as="geometry">
            <mxPoint x="355" y="30" as="sourcePoint" />
            <mxPoint x="560" y="40" as="targetPoint" />
          </mxGeometry>
        </mxCell>
        <mxCell id="bHlZWym9k1EQyk_S69b3-13" value="props" style="text;html=1;strokeColor=none;fillColor=none;align=center;verticalAlign=middle;whiteSpace=wrap;rounded=0;fontSize=19;" vertex="1" parent="1">
          <mxGeometry x="340" width="60" height="30" as="geometry" />
        </mxCell>
      </root>
    </mxGraphModel>
  </diagram>
</mxfile>
